<svg xmlns="http://www.w3.org/2000/svg" width="88.317" height="60.918" viewBox="0 0 88.317 60.918"><defs><style>.a{fill:#fff;}</style></defs><path class="a" d="M14.825,630.294c-1.533-.366-3.75-2.29-6.209-5.387-4.992-6.287-7.7-13.339-8.5-22.116a61.267,61.267,0,0,1,0-7.527,37.037,37.037,0,0,1,8.045-19.8,30.7,30.7,0,0,1,5-5.074c1.628-1.1,2.653-1.189,3.637-.316a1.243,1.243,0,0,1,.545.978c.1.859-.344,1.531-2.393,3.647a35.23,35.23,0,0,0-5.647,7.038c-3.323,5.529-4.744,11.343-4.541,18.568A37.1,37.1,0,0,0,6.2,610.149a32.472,32.472,0,0,0,8.469,14.284c2.177,2.241,2.717,3.02,2.717,3.912a2.046,2.046,0,0,1-1.512,1.937,1.443,1.443,0,0,1-1.045.011Zm57.455.034a2.634,2.634,0,0,1-1.385-1.489c-.151-.806.329-1.524,2.565-3.84,1.1-1.14,2.454-2.638,3.008-3.329a31.259,31.259,0,0,0,6.911-17.258,63.579,63.579,0,0,0-.169-9.205,33.825,33.825,0,0,0-3.271-10.983,31.457,31.457,0,0,0-6.263-8.752c-1.943-2-2.516-2.734-2.711-3.461a1.805,1.805,0,0,1,.481-1.85c.733-.833,1.571-.908,2.883-.256,1.587.789,3.644,2.85,6.032,6.043,4.8,6.424,7.281,13.491,7.877,22.468a37.558,37.558,0,0,1-5.211,21.742c-2.669,4.414-6.74,8.936-8.908,9.9a3.556,3.556,0,0,1-1.837.275Zm-47.948-4.651a2.506,2.506,0,0,1-1.737-2.995,2.736,2.736,0,0,1,1.791-1.834c.794-.2,41.849-.2,42.643,0a2.667,2.667,0,0,1,1.787,1.864,2.538,2.538,0,0,1-1.2,2.737l-.5.287-21.229.02c-11.676.011-21.375-.024-21.553-.078ZM40.5,615.7a16.092,16.092,0,0,1-8.9-7.584,14.278,14.278,0,0,1-1.475-6.15c0-2.738,1.071-5.347,4.333-10.559a54.8,54.8,0,0,0,3.558-6.08A10.262,10.262,0,0,0,39.3,580.5a6.321,6.321,0,0,0-.952-3.77,9.175,9.175,0,0,0-2.166-2.441c-.775-.4-.935-.945-.385-1.3.87-.57,3.247-.209,5.43.826a11.653,11.653,0,0,1,5.478,5.055c.914,1.7,1.282,3,1.9,6.72.688,4.128,1.37,5.438,2.749,5.279a1.767,1.767,0,0,0,1.494-.909c.49-.872.28-2.066-.711-4.041-.81-1.614-.76-2.1.19-1.85a12.979,12.979,0,0,1,3.194,2.609,16.893,16.893,0,0,1,4.8,9.32,23.888,23.888,0,0,1,.061,6.859,15.832,15.832,0,0,1-2.345,5.853,19.06,19.06,0,0,1-5.868,5.346c-.873.455-1.176.483-1.6.146-.532-.419-.42-.71.757-1.96a13.068,13.068,0,0,0,3.195-4.725,9.523,9.523,0,0,0-.947-7.657c-.56-.858-1.382-1.615-1.753-1.615-.2,0-.169.268.207,1.648a6.783,6.783,0,0,1,.24,1.313c0,1.263-1.782,2.178-3.352,1.721-1.276-.371-1.838-1.528-1.669-3.434.052-.589.1-1.659.1-2.379a3.2,3.2,0,0,0-.405-2.124c-.782-1.543-2.592-3.132-3.566-3.132-.42,0-.455.025-.455.334a.9.9,0,0,0,.307.621c1.009.942,1.2,2.873.45,4.577-.463,1.053-.985,1.65-2.767,3.163-2.345,1.991-3.1,2.939-3.57,4.478a5.4,5.4,0,0,0-.178,2.306,9.148,9.148,0,0,0,1.592,5.178,6.018,6.018,0,0,0,3.013,2.4c.613.229.68.288.68.6a.587.587,0,0,1-.672.581A8.7,8.7,0,0,1,40.5,615.7Z" transform="translate(0 -569.468)"/></svg>