<svg xmlns="http://www.w3.org/2000/svg" style="fill:#FF7900" width="85.161" height="83.06" viewBox="0 0 85.161 83.06"><defs><style>.a{fill-rule:evenodd;}</style></defs><path class="a" d="M178.9,383.44a42.586,42.586,0,0,0-13.457,82.987c2.13.39,2.907-.923,2.907-2.052,0-1.011-.037-3.688-.058-7.243-11.844,2.575-14.343-5.706-14.343-5.706-1.937-4.919-4.729-6.229-4.729-6.229-3.866-2.643.293-2.588.293-2.588,4.274.3,6.522,4.386,6.522,4.386,3.8,6.509,9.967,4.629,12.393,3.539a9.1,9.1,0,0,1,2.7-5.693c-9.455-1.074-19.4-4.726-19.4-21.045a16.462,16.462,0,0,1,4.384-11.426c-.439-1.077-1.9-5.406.418-11.269,0,0,3.573-1.145,11.708,4.365a40.381,40.381,0,0,1,21.32,0c8.13-5.51,11.7-4.365,11.7-4.365,2.324,5.863.863,10.192.426,11.269a16.433,16.433,0,0,1,4.376,11.426c0,16.358-9.957,19.958-19.443,21.011,1.529,1.315,2.891,3.916,2.891,7.886,0,5.693-.052,10.286-.052,11.682,0,1.137.768,2.462,2.928,2.047A42.587,42.587,0,0,0,178.9,383.44Z" transform="translate(-136.32 -383.44)"/></svg>