<svg xmlns="http://www.w3.org/2000/svg" width="26.459" height="23.513" viewBox="0 0 26.459 23.513"><defs><style>.a{fill:#fff;}</style></defs><path class="a" d="M19.48,28.507h-.046a7.086,7.086,0,0,0-6.2,4.188c-.9-1.691-2.792-4.188-6.2-4.188H6.964A7.29,7.29,0,0,0,.01,35.672c-.233,4.885,3.666,8.174,9.5,13.137,1.008.869,2.078,1.784,3.211,2.761l.512.45.512-.45c1.117-.977,2.2-1.892,3.211-2.761,5.831-4.963,9.73-8.251,9.5-13.137A7.3,7.3,0,0,0,19.48,28.507Z" transform="translate(0 -28.507)"/><path class="a" d="M269.221,35.672c.233,4.885-3.665,8.174-9.5,13.137-1.008.869-2.094,1.784-3.211,2.761l-.512.45V32.695a7.085,7.085,0,0,1,6.2-4.188h.046A7.3,7.3,0,0,1,269.221,35.672Z" transform="translate(-242.772 -28.507)"/></svg>