<svg xmlns="http://www.w3.org/2000/svg" style="fill:#FF7900" width="83.061" height="83.061" viewBox="0 0 83.061 83.061"><defs><style>.a{fill-rule:evenodd;}</style></defs><g transform="translate(-1 -4)"><path class="a" d="M41.53,7.383c11.075,0,12.459,0,16.612.461a21.4,21.4,0,0,1,7.845,1.384,16.206,16.206,0,0,1,7.845,7.845,21.4,21.4,0,0,1,1.384,7.845c0,4.153.461,5.537.461,16.612s0,12.459-.461,16.612a21.4,21.4,0,0,1-1.384,7.845,16.206,16.206,0,0,1-7.845,7.845,21.4,21.4,0,0,1-7.845,1.384c-4.153,0-5.537.461-16.612.461s-12.459,0-16.612-.461a21.4,21.4,0,0,1-7.845-1.384,16.206,16.206,0,0,1-7.845-7.845,21.4,21.4,0,0,1-1.384-7.845c0-4.153-.461-5.537-.461-16.612s0-12.459.461-16.612a21.4,21.4,0,0,1,1.384-7.845,16.573,16.573,0,0,1,3.23-4.614,7.8,7.8,0,0,1,4.614-3.23,21.4,21.4,0,0,1,7.845-1.384c4.153-.461,5.537-.461,16.612-.461M41.53,0C30.456,0,28.61,0,24.457.461A28.488,28.488,0,0,0,14.3,2.307,18.064,18.064,0,0,0,6.922,6.922,18.064,18.064,0,0,0,2.307,14.3C.923,17.074.461,19.842.461,24.457,0,28.61,0,30.456,0,41.53S0,54.451.461,58.6A28.488,28.488,0,0,0,2.307,68.756a18.064,18.064,0,0,0,4.614,7.383A18.064,18.064,0,0,0,14.3,80.753,28.488,28.488,0,0,0,24.457,82.6c4.153.461,6,.461,17.074.461s12.921,0,17.074-.461a28.488,28.488,0,0,0,10.152-1.846,19.36,19.36,0,0,0,12-12A28.488,28.488,0,0,0,82.6,58.6c0-4.614.461-6,.461-17.074s0-12.921-.461-17.074A28.488,28.488,0,0,0,80.753,14.3a18.064,18.064,0,0,0-4.614-7.383,18.064,18.064,0,0,0-7.383-4.614A28.488,28.488,0,0,0,58.6.461C54.451,0,52.605,0,41.53,0m0,20.3A20.885,20.885,0,0,0,20.3,41.53,21.227,21.227,0,1,0,41.53,20.3m0,35.07A13.6,13.6,0,0,1,27.687,41.53,13.6,13.6,0,0,1,41.53,27.687,13.6,13.6,0,0,1,55.374,41.53,13.6,13.6,0,0,1,41.53,55.374M63.68,14.3a5.076,5.076,0,1,0,5.076,5.076A5.121,5.121,0,0,0,63.68,14.3" transform="translate(1 4)"/></g></svg>