<svg xmlns="http://www.w3.org/2000/svg" style="fill:#FF7900" width="86.433" height="83.06" viewBox="0 0 86.433 83.06"><g transform="translate(-1490.079 -17.44)"><g transform="translate(1490.079 17.44)"><path d="M70.227,0H16.206C7.259,0,0,6.976,0,15.574V67.486c0,8.6,7.259,15.574,16.206,15.574H70.227c8.947,0,16.206-6.976,16.206-15.574V15.574C86.433,6.976,79.174,0,70.227,0Zm-43.5,70.506H13.3l-.078-38.635H26.647ZM19.673,26.817H19.6c-4.389,0-7.22-2.908-7.22-6.526,0-3.706,2.922-6.514,7.389-6.514s7.207,2.808,7.3,6.514C27.062,23.91,24.218,26.817,19.673,26.817ZM73.279,70.506H59.735V49.516c0-5.079-1.4-8.536-6.129-8.536a6.822,6.822,0,0,0-6.493,4.592,8.124,8.124,0,0,0-.441,3.058V70.506H33.062l-.078-38.635H46.593l.078,5.453c1.74-2.583,4.636-6.239,11.57-6.239,8.6,0,15.025,5.391,15.025,16.984V70.506Z"/></g></g></svg>